<svg width="42" height="40" viewBox="0 0 42 40" fill="none" xmlns="http://www.w3.org/2000/svg">
<rect x="0.818222" y="0.363647" width="40.5454" height="39.6364" rx="19.8182" fill="white"/>
<g clip-path="url(#clip0_40_288)">
<path d="M32.3239 14.593C32.0471 13.565 31.2366 12.7544 30.2086 12.4776C28.3305 11.9636 20.8182 11.9636 20.8182 11.9636C20.8182 11.9636 13.3058 11.9636 11.4278 12.4579C10.4195 12.7346 9.58922 13.565 9.31245 14.593C8.81822 16.471 8.81822 20.3656 8.81822 20.3656C8.81822 20.3656 8.81822 24.2799 9.31245 26.1382C9.58922 27.1662 10.3998 27.9768 11.4278 28.2535C13.3256 28.7675 20.8182 28.7675 20.8182 28.7675C20.8182 28.7675 28.3305 28.7675 30.2086 28.2733C31.2366 27.9965 32.0471 27.186 32.3239 26.158C32.8181 24.2799 32.8181 20.3854 32.8181 20.3854C32.8181 20.3854 32.8379 16.471 32.3239 14.593Z" fill="#333333"/>
<path d="M18.4261 23.9636L24.6732 20.3656L18.4261 16.7676V23.9636Z" fill="white"/>
</g>
<defs>
<clipPath id="clip0_40_288">
<rect width="24" height="24" fill="white" transform="translate(8.81822 8.36365)"/>
</clipPath>
</defs>
</svg>
