<svg width="41" height="40" viewBox="0 0 41 40" fill="none" xmlns="http://www.w3.org/2000/svg">
<rect x="0.454681" y="0.363647" width="40.5454" height="39.6364" rx="19.8182" fill="white"/>
<g clip-path="url(#clip0_40_293)">
<path d="M20.4547 10.5264C23.6607 10.5264 24.0371 10.5407 25.3042 10.5979C26.4761 10.6503 27.1097 10.8456 27.5337 11.0123C28.0958 11.2315 28.496 11.4887 28.9152 11.9079C29.3344 12.3271 29.5964 12.7273 29.8108 13.2894C29.9728 13.7134 30.1728 14.347 30.2252 15.5189C30.2824 16.786 30.2967 17.1624 30.2967 20.3684C30.2967 23.5744 30.2824 23.9508 30.2252 25.218C30.1728 26.3898 29.9775 27.0234 29.8108 27.4474C29.5917 28.0095 29.3344 28.4097 28.9152 28.8289C28.496 29.2481 28.0958 29.5101 27.5337 29.7245C27.1097 29.8865 26.4761 30.0866 25.3042 30.139C24.0371 30.1961 23.6607 30.2104 20.4547 30.2104C17.2487 30.2104 16.8723 30.1961 15.6051 30.139C14.4332 30.0866 13.7997 29.8912 13.3757 29.7245C12.8136 29.5054 12.4134 29.2481 11.9942 28.8289C11.575 28.4097 11.313 28.0095 11.0986 27.4474C10.9366 27.0234 10.7365 26.3898 10.6841 25.218C10.627 23.9508 10.6127 23.5744 10.6127 20.3684C10.6127 17.1624 10.627 16.786 10.6841 15.5189C10.7365 14.347 10.9319 13.7134 11.0986 13.2894C11.3177 12.7273 11.575 12.3271 11.9942 11.9079C12.4134 11.4887 12.8136 11.2267 13.3757 11.0123C13.7997 10.8503 14.4332 10.6503 15.6051 10.5979C16.8723 10.5359 17.2534 10.5264 20.4547 10.5264ZM20.4547 8.36365C17.1963 8.36365 16.7866 8.37794 15.5051 8.4351C14.2284 8.49227 13.3566 8.69711 12.5944 8.99247C11.8036 9.29735 11.1367 9.7118 10.4698 10.3787C9.80284 11.0457 9.39315 11.7174 9.0835 12.5034C8.78815 13.2656 8.5833 14.1374 8.52614 15.4188C8.46897 16.6955 8.45468 17.1052 8.45468 20.3636C8.45468 23.6221 8.46897 24.0318 8.52614 25.3132C8.5833 26.5899 8.78815 27.4617 9.0835 28.2287C9.38839 29.0195 9.80284 29.6864 10.4698 30.3533C11.1367 31.0203 11.8084 31.4299 12.5944 31.7396C13.3566 32.0349 14.2284 32.2398 15.5099 32.297C16.7913 32.3541 17.1963 32.3684 20.4595 32.3684C23.7227 32.3684 24.1276 32.3541 25.409 32.297C26.6857 32.2398 27.5575 32.0349 28.3245 31.7396C29.1153 31.4347 29.7822 31.0203 30.4491 30.3533C31.1161 29.6864 31.5258 29.0147 31.8354 28.2287C32.1308 27.4665 32.3356 26.5947 32.3928 25.3132C32.4499 24.0318 32.4642 23.6268 32.4642 20.3636C32.4642 17.1004 32.4499 16.6955 32.3928 15.4141C32.3356 14.1374 32.1308 13.2656 31.8354 12.4986C31.5305 11.7078 31.1161 11.0409 30.4491 10.374C29.7822 9.70704 29.1105 9.29735 28.3245 8.9877C27.5623 8.69235 26.6905 8.48751 25.409 8.43034C24.1228 8.37794 23.7131 8.36365 20.4547 8.36365Z" fill="#333333"/>
<path d="M20.4547 10.5264C23.6607 10.5264 24.0371 10.5407 25.3042 10.5979C26.4761 10.6503 27.1097 10.8456 27.5337 11.0123C28.0958 11.2315 28.496 11.4887 28.9152 11.9079C29.3344 12.3271 29.5964 12.7273 29.8108 13.2894C29.9728 13.7134 30.1728 14.347 30.2252 15.5189C30.2824 16.786 30.2967 17.1624 30.2967 20.3684C30.2967 23.5744 30.2824 23.9508 30.2252 25.218C30.1728 26.3898 29.9775 27.0234 29.8108 27.4474C29.5917 28.0095 29.3344 28.4097 28.9152 28.8289C28.496 29.2481 28.0958 29.5101 27.5337 29.7245C27.1097 29.8865 26.4761 30.0866 25.3042 30.139C24.0371 30.1961 23.6607 30.2104 20.4547 30.2104C17.2487 30.2104 16.8723 30.1961 15.6051 30.139C14.4332 30.0866 13.7997 29.8912 13.3757 29.7245C12.8136 29.5054 12.4134 29.2481 11.9942 28.8289C11.575 28.4097 11.313 28.0095 11.0986 27.4474C10.9366 27.0234 10.7365 26.3898 10.6841 25.218C10.627 23.9508 10.6127 23.5744 10.6127 20.3684C10.6127 17.1624 10.627 16.786 10.6841 15.5189C10.7365 14.347 10.9319 13.7134 11.0986 13.2894C11.3177 12.7273 11.575 12.3271 11.9942 11.9079C12.4134 11.4887 12.8136 11.2267 13.3757 11.0123C13.7997 10.8503 14.4332 10.6503 15.6051 10.5979C16.8723 10.5359 17.2534 10.5264 20.4547 10.5264Z" fill="#333333"/>
<path d="M20.4547 14.2041C17.0533 14.2041 14.2903 16.9623 14.2903 20.3684C14.2903 23.7745 17.0486 26.5328 20.4547 26.5328C23.8608 26.5328 26.619 23.7745 26.619 20.3684C26.619 16.9623 23.8608 14.2041 20.4547 14.2041ZM20.4547 24.3652C18.2443 24.3652 16.4531 22.574 16.4531 20.3636C16.4531 18.1532 18.2443 16.3621 20.4547 16.3621C22.6651 16.3621 24.4563 18.1532 24.4563 20.3636C24.4563 22.574 22.6651 24.3652 20.4547 24.3652Z" fill="white"/>
<path d="M26.862 15.395C27.6565 15.395 28.3006 14.7509 28.3006 13.9563C28.3006 13.1618 27.6565 12.5177 26.862 12.5177C26.0674 12.5177 25.4233 13.1618 25.4233 13.9563C25.4233 14.7509 26.0674 15.395 26.862 15.395Z" fill="white"/>
</g>
<defs>
<clipPath id="clip0_40_293">
<rect width="24" height="24" fill="white" transform="translate(8.45468 8.36365)"/>
</clipPath>
</defs>
</svg>
